<svg width="2976" height="1365" xmlns="http://www.w3.org/2000/svg" xmlns:xlink="http://www.w3.org/1999/xlink" xml:space="preserve" overflow="hidden"><g transform="translate(-449 -424)"><rect x="1423" y="903" width="1663" height="473" stroke="#000000" stroke-width="10.3125" stroke-miterlimit="8" fill="none"/><path d="M5.15625-7.97508e-06 5.15654 186.927-5.15596 186.927-5.15625 7.97508e-06ZM25.7815 181.771 0.000360892 233.333-25.781 181.771Z" fill="#FF0000" transform="matrix(1 0 0 -1 1426 899.333)"/><path d="M5.15625-7.97508e-06 5.15654 186.927-5.15596 186.927-5.15625 7.97508e-06ZM25.7815 181.771 0.000360892 233.333-25.781 181.771Z" fill="#FF0000" transform="matrix(1 0 0 -1 1652 899.333)"/><path d="M5.15625-7.97508e-06 5.15654 186.927-5.15596 186.927-5.15625 7.97508e-06ZM25.7815 181.771 0.000360892 233.333-25.781 181.771Z" fill="#FF0000" transform="matrix(1 0 0 -1 2121 899.333)"/><path d="M5.15625-7.97508e-06 5.15654 186.927-5.15596 186.927-5.15625 7.97508e-06ZM25.7815 181.771 0.000360892 233.333-25.781 181.771Z" fill="#FF0000" transform="matrix(1 0 0 -1 1900 899.333)"/><path d="M5.15625-7.97508e-06 5.15654 186.927-5.15596 186.927-5.15625 7.97508e-06ZM25.7815 181.771 0.000360892 233.333-25.781 181.771Z" fill="#FF0000" transform="matrix(1 0 0 -1 2397 899.333)"/><path d="M5.15625-7.97508e-06 5.15654 186.927-5.15596 186.927-5.15625 7.97508e-06ZM25.7815 181.771 0.000360892 233.333-25.781 181.771Z" fill="#FF0000" transform="matrix(1 0 0 -1 2642 899.333)"/><path d="M5.15625-7.97508e-06 5.15654 186.927-5.15596 186.927-5.15625 7.97508e-06ZM25.7815 181.771 0.000360892 233.333-25.781 181.771Z" fill="#FF0000" transform="matrix(1 0 0 -1 3086 899.333)"/><path d="M5.15625-7.97508e-06 5.15654 186.927-5.15596 186.927-5.15625 7.97508e-06ZM25.7815 181.771 0.000360892 233.333-25.781 181.771Z" fill="#FF0000" transform="matrix(1 0 0 -1 2874 899.333)"/><path d="M1421 899 3086.25 899" stroke="#FF0000" stroke-width="10.3125" stroke-miterlimit="8" stroke-dasharray="41.25 30.9375" fill="none" fill-rule="evenodd"/><path d="M3175.75 652.481C3172.09 652.481 3168.82 653.958 3165.92 656.912 3163.02 659.866 3160.73 663.85 3159.07 668.863 3157.4 673.876 3156.57 678.871 3156.57 683.848 3156.57 687.572 3157.08 690.356 3158.1 692.2 3159.12 694.044 3160.83 694.966 3163.23 694.966 3164.34 694.966 3165.47 694.724 3166.61 694.241 3167.76 693.758 3168.95 692.979 3170.19 691.905 3171.42 690.83 3172.64 689.523 3173.84 687.984 3175.04 686.444 3176.14 684.895 3177.14 683.338 3178.15 681.78 3179.08 679.936 3179.94 677.806 3180.79 675.675 3181.53 673.106 3182.14 670.098L3182.62 667.788C3183.16 665.21 3183.43 662.775 3183.43 660.484 3183.43 657.691 3182.84 655.659 3181.65 654.388 3180.47 653.116 3178.5 652.481 3175.75 652.481ZM3174.78 648.238C3177 648.238 3179.11 648.497 3181.12 649.016 3183.12 649.536 3185.2 650.458 3187.35 651.783L3192.29 648.238 3195.73 649.097 3181.98 710.166C3181.37 712.888 3181.06 714.929 3181.06 716.289 3181.06 717.865 3181.47 718.984 3182.27 719.646 3183.08 720.309 3184.66 720.747 3187.03 720.962L3186.54 723.594 3169.78 723.594 3179.02 688.36 3178.27 688.037C3175.19 692.37 3172.05 695.664 3168.84 697.92 3165.64 700.176 3162.52 701.304 3159.47 701.304 3155.53 701.304 3152.48 699.818 3150.31 696.846 3148.15 693.874 3147.06 689.703 3147.06 684.331 3147.06 678.173 3148.27 672.255 3150.69 666.58 3153.11 660.904 3156.43 656.429 3160.65 653.152 3164.88 649.876 3169.59 648.238 3174.78 648.238Z" fill="#FF0000" fill-rule="evenodd"/><text fill="#000000" fill-opacity="0" font-family="Arial,Arial_MSFontService,sans-serif" font-size="75.3564" x="3147.06" y="714.175">𝑞</text><path d="M0 84.9999 51.4999 0 103 84.9999Z" stroke="#0000FF" stroke-width="4.58333" stroke-miterlimit="8" fill="#0000FF" fill-rule="evenodd" transform="matrix(-1 0 0 1 1476.5 1381.5)"/><path d="M1409.94 1466.5 1384.5 1496.16" stroke="#0000FF" stroke-width="4.58333" stroke-miterlimit="8" fill="#0000FF" fill-rule="evenodd"/><path d="M1478.94 1466.5 1453.5 1496.16" stroke="#0000FF" stroke-width="4.58333" stroke-miterlimit="8" fill="#0000FF" fill-rule="evenodd"/><path d="M1440.94 1466.5 1415.5 1496.16" stroke="#0000FF" stroke-width="4.58333" stroke-miterlimit="8" fill="#0000FF" fill-rule="evenodd"/><path d="M1374.94 1466.5 1349.5 1496.16" stroke="#0000FF" stroke-width="4.58333" stroke-miterlimit="8" fill="#0000FF" fill-rule="evenodd"/><path d="M1243.5 1136.06 1271 1136.06 1271 1142.94 1243.5 1142.94ZM1291.62 1136.06 1319.12 1136.06 1319.12 1142.94 1291.62 1142.94ZM1339.75 1136.06 1367.25 1136.06 1367.25 1142.94 1339.75 1142.94ZM1387.87 1136.06 1415.37 1136.06 1415.37 1142.94 1387.87 1142.94ZM1436 1136.06 1463.5 1136.06 1463.5 1142.94 1436 1142.94ZM1484.12 1136.06 1511.62 1136.06 1511.62 1142.94 1484.12 1142.94ZM1532.25 1136.06 1559.75 1136.06 1559.75 1142.94 1532.25 1142.94ZM1580.37 1136.06 1607.87 1136.06 1607.87 1142.94 1580.37 1142.94ZM1628.5 1136.06 1656 1136.06 1656 1142.94 1628.5 1142.94ZM1676.62 1136.06 1704.12 1136.06 1704.12 1142.94 1676.62 1142.94ZM1724.75 1136.06 1752.25 1136.06 1752.25 1142.94 1724.75 1142.94ZM1772.87 1136.06 1800.37 1136.06 1800.37 1142.94 1772.87 1142.94ZM1821 1136.06 1848.5 1136.06 1848.5 1142.94 1821 1142.94ZM1869.12 1136.06 1896.62 1136.06 1896.62 1142.94 1869.12 1142.94ZM1917.25 1136.06 1944.75 1136.06 1944.75 1142.94 1917.25 1142.94ZM1965.37 1136.06 1992.87 1136.06 1992.87 1142.94 1965.37 1142.94ZM2013.5 1136.06 2041 1136.06 2041 1142.94 2013.5 1142.94ZM2061.62 1136.06 2089.12 1136.06 2089.12 1142.94 2061.62 1142.94ZM2109.75 1136.06 2137.25 1136.06 2137.25 1142.94 2109.75 1142.94ZM2157.88 1136.06 2185.38 1136.06 2185.38 1142.94 2157.88 1142.94ZM2206 1136.06 2233.5 1136.06 2233.5 1142.94 2206 1142.94ZM2254.12 1136.06 2281.62 1136.06 2281.62 1142.94 2254.12 1142.94ZM2302.25 1136.06 2329.75 1136.06 2329.75 1142.94 2302.25 1142.94ZM2350.38 1136.06 2377.88 1136.06 2377.88 1142.94 2350.38 1142.94ZM2398.5 1136.06 2426 1136.06 2426 1142.94 2398.5 1142.94ZM2446.62 1136.06 2474.12 1136.06 2474.12 1142.94 2446.62 1142.94ZM2494.75 1136.06 2522.25 1136.06 2522.25 1142.94 2494.75 1142.94ZM2542.88 1136.06 2570.38 1136.06 2570.38 1142.94 2542.88 1142.94ZM2591 1136.06 2618.5 1136.06 2618.5 1142.94 2591 1142.94ZM2639.12 1136.06 2666.62 1136.06 2666.62 1142.94 2639.12 1142.94ZM2687.25 1136.06 2714.75 1136.06 2714.75 1142.94 2687.25 1142.94ZM2735.38 1136.06 2762.88 1136.06 2762.88 1142.94 2735.38 1142.94ZM2783.5 1136.06 2811 1136.06 2811 1142.94 2783.5 1142.94ZM2831.62 1136.06 2859.12 1136.06 2859.12 1142.94 2831.62 1142.94ZM2879.75 1136.06 2907.25 1136.06 2907.25 1142.94 2879.75 1142.94ZM2927.88 1136.06 2955.38 1136.06 2955.38 1142.94 2927.88 1142.94ZM2976 1136.06 3003.5 1136.06 3003.5 1142.94 2976 1142.94ZM3024.12 1136.06 3051.62 1136.06 3051.62 1142.94 3024.12 1142.94ZM3072.25 1136.06 3099.75 1136.06 3099.75 1142.94 3072.25 1142.94ZM3120.38 1136.06 3147.88 1136.06 3147.88 1142.94 3120.38 1142.94ZM3168.5 1136.06 3196 1136.06 3196 1142.94 3168.5 1142.94ZM3216.62 1136.06 3244.12 1136.06 3244.12 1142.94 3216.62 1142.94ZM3264.75 1136.06 3292.25 1136.06 3292.25 1142.94 3264.75 1142.94ZM3266.12 1113.58 3312.78 1139.5 3266.12 1165.42C3264.46 1166.34 3262.37 1165.75 3261.45 1164.09 3260.52 1162.43 3261.12 1160.33 3262.78 1159.41L3304.03 1136.5 3304.03 1142.51 3262.78 1119.59C3261.12 1118.67 3260.52 1116.57 3261.45 1114.91 3262.37 1113.25 3264.46 1112.66 3266.12 1113.58Z"/><path d="M3.4375-1.40927e-06 3.43751 27.5-3.43749 27.5-3.4375 1.40927e-06ZM3.43752 48.125 3.43753 75.625-3.43747 75.625-3.43748 48.125ZM3.43754 96.25 3.43755 123.75-3.43745 123.75-3.43746 96.25ZM3.43756 144.375 3.43757 171.875-3.43743 171.875-3.43744 144.375ZM3.43758 192.5 3.43759 220-3.43741 220-3.43742 192.5ZM3.4376 240.625 3.43761 268.125-3.43739 268.125-3.4374 240.625ZM3.43762 288.75 3.43763 316.25-3.43737 316.25-3.43738 288.75ZM3.43764 336.875 3.43765 364.375-3.43735 364.375-3.43736 336.875ZM3.43766 385 3.43767 412.5-3.43733 412.5-3.43734 385ZM3.43768 433.125 3.43769 460.625-3.43731 460.625-3.43732 433.125ZM3.4377 481.25 3.43771 508.75-3.43729 508.75-3.4373 481.25ZM3.43772 529.375 3.43773 556.875-3.43727 556.875-3.43728 529.375ZM3.43774 577.5 3.43775 605-3.43725 605-3.43726 577.5ZM3.43776 625.625 3.43777 653.125-3.43723 653.125-3.43724 625.625ZM3.43778 673.75 3.43779 701.25-3.43721 701.25-3.43722 673.75ZM3.4378 721.875 3.43781 749.375-3.43719 749.375-3.4372 721.875ZM3.43782 770 3.43783 797.5-3.43717 797.5-3.43718 770ZM3.43784 818.125 3.43785 845.625-3.43715 845.625-3.43716 818.125ZM3.43786 866.25 3.43786 873.21-3.43714 873.21-3.43714 866.25ZM25.9219 833.628 0.000360161 880.286-25.9212 833.628C-26.8432 831.968-26.2453 829.875-24.5857 828.953-22.9262 828.031-20.8334 828.629-19.9114 830.289L3.00527 871.539-3.00456 871.539 19.9121 830.289C20.8341 828.629 22.9268 828.031 24.5864 828.953 26.246 829.875 26.8439 831.968 25.9219 833.628Z" transform="matrix(1 0 0 -1 2255.5 1474.79)"/><path d="M3357.5 1120.77C3358.61 1120.77 3359.59 1120.9 3360.43 1121.15 3361.27 1121.4 3362.01 1121.78 3362.66 1122.3 3363.3 1122.82 3363.88 1123.49 3364.38 1124.32 3364.88 1125.14 3365.36 1126.26 3365.83 1127.67 3366.29 1129.09 3366.73 1130.84 3367.14 1132.94 3367.56 1135.03 3367.92 1137.21 3368.25 1139.46L3368.78 1139.46C3372.22 1134.63 3374.82 1131.09 3376.6 1128.86 3378.37 1126.62 3379.86 1124.95 3381.08 1123.86 3382.3 1122.77 3383.47 1122 3384.6 1121.55 3385.73 1121.1 3387.22 1120.88 3389.09 1120.88 3390.77 1120.88 3392.15 1121.09 3393.22 1121.52L3391.07 1131.25 3387.31 1131.25C3387.1 1129.74 3386.47 1128.99 3385.43 1128.99 3385.11 1128.99 3384.77 1129.04 3384.41 1129.15 3384.05 1129.26 3383.62 1129.49 3383.1 1129.85 3382.58 1130.21 3381.82 1130.91 3380.81 1131.94 3379.81 1132.98 3378.68 1134.25 3377.43 1135.76 3376.18 1137.26 3374.89 1138.84 3373.56 1140.48L3369.91 1145.05C3370.55 1148.49 3371.16 1151.46 3371.74 1153.97 3372.31 1156.47 3372.82 1158.56 3373.27 1160.22 3373.71 1161.89 3374.11 1163.2 3374.45 1164.17 3374.79 1165.14 3375.16 1165.86 3375.55 1166.35 3375.94 1166.83 3376.35 1167.17 3376.76 1167.37 3377.17 1167.56 3377.64 1167.66 3378.18 1167.66 3379.15 1167.66 3380.09 1167.29 3381 1166.53 3381.91 1165.78 3383.23 1164.08 3384.95 1161.43L3388.44 1163.74C3385.93 1167.46 3383.67 1170.09 3381.65 1171.61 3379.62 1173.13 3377.22 1173.89 3374.42 1173.89 3372.88 1173.89 3371.58 1173.61 3370.5 1173.06 3369.43 1172.5 3368.5 1171.62 3367.71 1170.4 3366.92 1169.18 3366.22 1167.29 3365.61 1164.71 3364.5 1160.12 3363.82 1156.61 3363.57 1154.18L3363.04 1154.18C3359.24 1159.52 3356.42 1163.35 3354.58 1165.67 3352.73 1168 3351.21 1169.72 3350.01 1170.83 3348.81 1171.94 3347.65 1172.72 3346.52 1173.17 3345.39 1173.61 3343.9 1173.84 3342.03 1173.84 3340.35 1173.84 3338.97 1173.62 3337.9 1173.19L3340.05 1163.47 3343.81 1163.47C3344.02 1164.98 3344.65 1165.73 3345.69 1165.73 3346.19 1165.73 3346.72 1165.59 3347.27 1165.32 3347.83 1165.06 3348.62 1164.41 3349.66 1163.39 3350.7 1162.37 3352.13 1160.77 3353.96 1158.58 3355.78 1156.4 3358.43 1153.12 3361.91 1148.76 3361.37 1145.93 3360.82 1143.2 3360.24 1140.59 3359.67 1137.98 3359.08 1135.54 3358.47 1133.29 3357.86 1131.03 3357.36 1129.55 3356.97 1128.86 3356.57 1128.16 3356.15 1127.67 3355.7 1127.41 3355.26 1127.14 3354.69 1127 3354.01 1127 3353.26 1127 3352.58 1127.17 3351.97 1127.51 3351.36 1127.85 3350.7 1128.44 3349.98 1129.28 3349.27 1130.13 3348.32 1131.44 3347.14 1133.23L3343.65 1130.92C3345.9 1127.52 3348.07 1124.98 3350.14 1123.3 3352.22 1121.61 3354.67 1120.77 3357.5 1120.77Z" fill-rule="evenodd"/><text fill="#000000" fill-opacity="0" font-family="Arial,Arial_MSFontService,sans-serif" font-size="53.1201" x="3337.9" y="1167.25">𝑥</text><path d="M2272.41 474.576C2273.88 474.576 2275.13 474.773 2276.17 475.167 2276.89 475.453 2277.6 475.928 2278.32 476.59 2279.04 477.253 2279.67 478.175 2280.23 479.356 2280.78 480.538 2281.27 481.863 2281.68 483.331 2282.09 484.799 2282.55 486.912 2283.05 489.669 2283.91 494.288 2284.74 499.149 2285.54 504.251 2286.35 509.354 2287.04 514.09 2287.61 518.458 2291.09 513.445 2294.03 508.539 2296.45 503.741 2298.86 498.943 2300.6 494.771 2301.66 491.227 2302.71 487.682 2303.24 484.799 2303.24 482.579 2303.24 480.896 2302.88 479.75 2302.17 479.142 2301.45 478.533 2300.23 478.175 2298.52 478.067L2299.05 475.436 2313.18 475.436 2314.63 478.121C2311.91 485.569 2308.22 493.536 2303.56 502.022 2298.98 510.33 2293.74 518.601 2287.83 526.837 2282.17 534.679 2277.46 540.354 2273.7 543.863 2271.09 546.262 2268.56 547.981 2266.13 549.02 2264.19 549.807 2262.14 550.201 2259.95 550.201 2259.2 550.201 2258.33 550.138 2257.35 550.013 2256.36 549.888 2255.6 549.718 2255.06 549.503L2257.37 539.083 2261.62 539.083C2261.62 541.375 2262.4 542.521 2263.98 542.521 2266.06 542.521 2268.47 541.222 2271.23 538.626 2273.99 536.03 2277.23 532.118 2280.95 526.891 2279.91 520.624 2278.5 513.069 2276.71 504.225 2274.81 494.771 2273.56 488.917 2272.95 486.661 2272.2 483.94 2271.41 482.203 2270.59 481.451 2270.08 480.986 2269.46 480.753 2268.71 480.753 2267.56 480.753 2266.49 481.218 2265.48 482.149 2264.48 483.08 2263.25 484.692 2261.78 486.983L2258.29 484.674C2260.76 480.986 2263.07 478.381 2265.21 476.859 2267.36 475.337 2269.76 474.576 2272.41 474.576Z" fill-rule="evenodd"/><text fill="#000000" fill-opacity="0" font-family="Arial,Arial_MSFontService,sans-serif" font-size="75.625" x="2255.06" y="540.748">𝑦</text><path d="M0 84.9999 51.9999 0 104 84.9999Z" stroke="#0000FF" stroke-width="4.58333" stroke-miterlimit="8" fill="#0000FF" fill-rule="evenodd" transform="matrix(-1 0 0 1 3136.5 1381.5)"/><path d="M3032.5 1482C3032.5 1475.1 3038.32 1469.5 3045.5 1469.5 3052.68 1469.5 3058.5 1475.1 3058.5 1482 3058.5 1488.9 3052.68 1494.5 3045.5 1494.5 3038.32 1494.5 3032.5 1488.9 3032.5 1482Z" stroke="#0000FF" stroke-width="4.58333" stroke-miterlimit="8" fill="#FFFFFF" fill-rule="evenodd"/><path d="M3114.5 1481.5C3114.5 1474.32 3120.1 1468.5 3127 1468.5 3133.9 1468.5 3139.5 1474.32 3139.5 1481.5 3139.5 1488.68 3133.9 1494.5 3127 1494.5 3120.1 1494.5 3114.5 1488.68 3114.5 1481.5Z" stroke="#0000FF" stroke-width="4.58333" stroke-miterlimit="8" fill="#FFFFFF" fill-rule="evenodd"/><path d="M3071.5 1481.5C3071.5 1474.32 3077.32 1468.5 3084.5 1468.5 3091.68 1468.5 3097.5 1474.32 3097.5 1481.5 3097.5 1488.68 3091.68 1494.5 3084.5 1494.5 3077.32 1494.5 3071.5 1488.68 3071.5 1481.5Z" stroke="#0000FF" stroke-width="4.58333" stroke-miterlimit="8" fill="#FFFFFF" fill-rule="evenodd"/><path d="M3032.5 1494.5 3135.83 1494.5" stroke="#0000FF" stroke-width="4.58333" stroke-miterlimit="8" fill="none" fill-rule="evenodd"/><path d="M1421.5 1550.5 1421.5 1736.13" stroke="#000000" stroke-width="4.58333" stroke-miterlimit="8" fill="#FFFFFF" fill-rule="evenodd"/><path d="M2255.5 1550.5 2255.5 1736.13" stroke="#000000" stroke-width="4.58333" stroke-miterlimit="8" fill="#FFFFFF" fill-rule="evenodd"/><path d="M3086.5 1550.5 3086.5 1736.13" stroke="#000000" stroke-width="4.58333" stroke-miterlimit="8" fill="#FFFFFF" fill-rule="evenodd"/><path d="M1448.42 1641.21 2231.53 1641.21 2231.53 1645.79 1448.42 1645.79ZM1453 1657.25 1425.5 1643.5 1453 1629.75ZM2226.95 1629.75 2254.45 1643.5 2226.95 1657.25Z"/><path d="M2278.42 1641.21 3061.53 1641.21 3061.53 1645.79 2278.42 1645.79ZM2283 1657.25 2255.5 1643.5 2283 1629.75ZM3056.95 1629.75 3084.45 1643.5 3056.95 1657.25Z"/><path d="M1828.72 1685.23 1850.21 1685.23 1849.62 1687.87C1848.26 1688.15 1847.28 1688.48 1846.69 1688.83 1846.1 1689.19 1845.57 1689.73 1845.11 1690.44 1844.64 1691.16 1844.16 1692.28 1843.65 1693.8 1843.15 1695.32 1842.53 1697.8 1841.78 1701.24L1830.28 1753.61 1843.49 1753.61C1845.89 1753.61 1847.78 1753.38 1849.16 1752.91 1850.54 1752.44 1851.85 1751.59 1853.08 1750.36 1854.32 1749.12 1855.53 1747.45 1856.71 1745.34 1857.89 1743.22 1859.09 1740.59 1860.31 1737.44L1865.52 1737.44 1860.09 1758.55 1814.65 1758.55 1815.24 1755.92C1816.6 1755.7 1817.62 1755.35 1818.3 1754.87 1818.98 1754.39 1819.56 1753.72 1820.02 1752.86 1820.49 1752 1820.92 1750.95 1821.31 1749.71 1821.71 1748.48 1822.3 1746.09 1823.08 1742.54L1832.21 1701.19C1833 1697.61 1833.4 1694.72 1833.4 1692.54 1833.4 1690.86 1832.98 1689.68 1832.13 1689.02 1831.29 1688.36 1829.96 1687.97 1828.13 1687.87Z" fill-rule="evenodd"/><text fill="#000000" fill-opacity="0" font-family="Arial,Arial_MSFontService,sans-serif" font-size="73.3154" x="1814.65" y="1749.39">𝐿</text><path d="M2660.11 1685.23 2681.59 1685.23 2681 1687.87C2679.64 1688.15 2678.66 1688.48 2678.07 1688.83 2677.48 1689.19 2676.95 1689.73 2676.49 1690.44 2676.02 1691.16 2675.54 1692.28 2675.04 1693.8 2674.54 1695.32 2673.91 1697.8 2673.16 1701.24L2661.66 1753.61 2674.88 1753.61C2677.28 1753.61 2679.17 1753.38 2680.54 1752.91 2681.92 1752.44 2683.23 1751.59 2684.46 1750.36 2685.7 1749.12 2686.91 1747.45 2688.09 1745.34 2689.27 1743.22 2690.47 1740.59 2691.69 1737.44L2696.9 1737.44 2691.47 1758.55 2646.03 1758.55 2646.63 1755.92C2647.99 1755.7 2649.01 1755.35 2649.69 1754.87 2650.37 1754.39 2650.94 1753.72 2651.41 1752.86 2651.87 1752 2652.3 1750.95 2652.69 1749.71 2653.09 1748.48 2653.68 1746.09 2654.47 1742.54L2663.6 1701.19C2664.39 1697.61 2664.78 1694.72 2664.78 1692.54 2664.78 1690.86 2664.36 1689.68 2663.52 1689.02 2662.68 1688.36 2661.34 1687.97 2659.52 1687.87Z" fill-rule="evenodd"/><text fill="#000000" fill-opacity="0" font-family="Arial,Arial_MSFontService,sans-serif" font-size="73.3154" x="2646.03" y="1749.39">𝐿</text><path d="M1205.13 903.5 1019.5 903.5" stroke="#000000" stroke-width="4.58333" stroke-miterlimit="8" fill="#FFFFFF" fill-rule="evenodd"/><path d="M1205.13 1142.5 1019.5 1142.5" stroke="#000000" stroke-width="4.58333" stroke-miterlimit="8" fill="#FFFFFF" fill-rule="evenodd"/><path d="M1205.13 1381.5 1019.5 1381.5" stroke="#000000" stroke-width="4.58333" stroke-miterlimit="8" fill="#FFFFFF" fill-rule="evenodd"/><path d="M1114.79 927.416 1114.79 1119.56 1110.21 1119.56 1110.21 927.416ZM1098.75 932 1112.5 904.5 1126.25 932ZM1126.25 1114.98 1112.5 1142.48 1098.75 1114.98Z"/><path d="M1114.79 1165.42 1114.79 1357.56 1110.21 1357.56 1110.21 1165.42ZM1098.75 1170 1112.5 1142.5 1126.25 1170ZM1126.25 1352.98 1112.5 1380.48 1098.75 1352.98Z"/><path d="M1035.27 1007.01C1040.04 1007.01 1044.42 1007.55 1048.43 1008.62L1045.8 1020.76 1040.16 1020.76C1040.09 1018.04 1039.87 1016.07 1039.49 1014.86 1039.11 1013.64 1038.5 1012.72 1037.66 1012.12 1036.82 1011.51 1035.63 1011.2 1034.09 1011.2 1030.47 1011.2 1027.23 1012.64 1024.34 1015.53 1021.46 1018.41 1019.11 1022.49 1017.28 1027.77 1015.45 1033.05 1014.54 1038.13 1014.54 1043 1014.54 1046.65 1015.26 1049.36 1016.69 1051.14 1018.12 1052.91 1020.27 1053.8 1023.13 1053.8 1026.39 1053.8 1029.21 1053.18 1031.59 1051.94 1033.97 1050.71 1036.49 1048.76 1039.14 1046.11L1042.42 1049.39C1039.05 1053.12 1035.66 1055.84 1032.24 1057.56 1028.82 1059.27 1025.14 1060.13 1021.2 1060.13 1016.01 1060.13 1012.07 1058.59 1009.38 1055.51 1006.7 1052.43 1005.36 1047.96 1005.36 1042.09 1005.36 1038.26 1006.07 1034.05 1007.5 1029.46 1008.94 1024.88 1011.03 1020.85 1013.79 1017.38 1016.55 1013.91 1019.77 1011.31 1023.46 1009.59 1027.14 1007.87 1031.08 1007.01 1035.27 1007.01Z" fill-rule="evenodd"/><text fill="#000000" fill-opacity="0" font-family="Arial,Arial_MSFontService,sans-serif" font-size="53.1201" x="1005.36" y="1053.49">𝑐</text><path d="M1035.27 1245.44C1040.04 1245.44 1044.42 1245.98 1048.43 1247.05L1045.8 1259.19 1040.16 1259.19C1040.09 1256.47 1039.87 1254.5 1039.49 1253.28 1039.11 1252.06 1038.5 1251.15 1037.66 1250.54 1036.82 1249.93 1035.63 1249.63 1034.09 1249.63 1030.47 1249.63 1027.23 1251.07 1024.34 1253.95 1021.46 1256.84 1019.11 1260.92 1017.28 1266.2 1015.45 1271.48 1014.54 1276.56 1014.54 1281.43 1014.54 1285.08 1015.26 1287.79 1016.69 1289.56 1018.12 1291.34 1020.27 1292.22 1023.13 1292.22 1026.39 1292.22 1029.21 1291.6 1031.59 1290.37 1033.97 1289.13 1036.49 1287.19 1039.14 1284.54L1042.42 1287.82C1039.05 1291.54 1035.66 1294.26 1032.24 1295.98 1028.82 1297.7 1025.14 1298.56 1021.2 1298.56 1016.01 1298.56 1012.07 1297.02 1009.38 1293.94 1006.7 1290.86 1005.36 1286.39 1005.36 1280.51 1005.36 1276.68 1006.07 1272.47 1007.5 1267.89 1008.94 1263.31 1011.03 1259.28 1013.79 1255.81 1016.55 1252.33 1019.77 1249.74 1023.46 1248.02 1027.14 1246.3 1031.08 1245.44 1035.27 1245.44Z" fill-rule="evenodd"/><text fill="#000000" fill-opacity="0" font-family="Arial,Arial_MSFontService,sans-serif" font-size="53.1201" x="1005.36" y="1291.92">𝑐</text><rect x="695" y="899" width="191" height="474" stroke="#000000" stroke-width="10.3125" stroke-miterlimit="8" fill="none"/><path d="M3.4375-1.40927e-06 3.43751 27.5-3.43749 27.5-3.4375 1.40927e-06ZM3.43752 48.125 3.43753 75.625-3.43747 75.625-3.43748 48.125ZM3.43754 96.25 3.43755 123.75-3.43745 123.75-3.43746 96.25ZM3.43756 144.375 3.43757 171.875-3.43743 171.875-3.43744 144.375ZM3.43758 192.5 3.43759 220-3.43741 220-3.43742 192.5ZM3.4376 240.625 3.43761 268.125-3.43739 268.125-3.4374 240.625ZM3.43762 288.75 3.43763 316.25-3.43737 316.25-3.43738 288.75ZM3.43764 336.875 3.43765 364.375-3.43735 364.375-3.43736 336.875ZM3.43766 385 3.43767 412.5-3.43733 412.5-3.43734 385ZM3.43768 433.125 3.43769 460.625-3.43731 460.625-3.43732 433.125ZM3.4377 481.25 3.43771 508.75-3.43729 508.75-3.4373 481.25ZM3.43772 529.375 3.43773 556.875-3.43727 556.875-3.43728 529.375ZM3.43774 577.5 3.43775 605-3.43725 605-3.43726 577.5ZM3.43776 625.625 3.43777 653.125-3.43723 653.125-3.43724 625.625ZM3.43778 673.75 3.43779 701.25-3.43721 701.25-3.43722 673.75ZM3.4378 721.875 3.43781 749.375-3.43719 749.375-3.4372 721.875ZM3.43782 770 3.43783 797.5-3.43717 797.5-3.43718 770ZM3.43784 818.125 3.43785 845.625-3.43715 845.625-3.43716 818.125ZM3.43786 866.25 3.43786 873.21-3.43714 873.21-3.43714 866.25ZM25.9219 833.628 0.000360161 880.286-25.9212 833.628C-26.8432 831.968-26.2453 829.875-24.5857 828.953-22.9262 828.031-20.8334 828.629-19.9114 830.289L3.00527 871.539-3.00456 871.539 19.9121 830.289C20.8341 828.629 22.9268 828.031 24.5864 828.953 26.246 829.875 26.8439 831.968 25.9219 833.628Z" transform="matrix(1 0 0 -1 791.5 1474.79)"/><path d="M3.06876e-06-3.4375 27.5-3.43748 27.5 3.43752-3.06876e-06 3.4375ZM48.125-3.43746 75.625-3.43743 75.625 3.43757 48.125 3.43754ZM96.25-3.43741 123.75-3.43739 123.75 3.43761 96.25 3.43759ZM144.375-3.43737 171.875-3.43735 171.875 3.43765 144.375 3.43763ZM192.5-3.43733 220-3.4373 220 3.4377 192.5 3.43767ZM240.625-3.43728 268.125-3.43726 268.125 3.43774 240.625 3.43772ZM288.75-3.43724 316.25-3.43722 316.25 3.43778 288.75 3.43776ZM336.875-3.4372 364.375-3.43717 364.375 3.43783 336.875 3.4378ZM385-3.43716 397.176-3.43715 397.176 3.43785 385 3.43784ZM357.595-25.9213 404.254 0.000361207 357.595 25.9219C355.936 26.8439 353.843 26.2459 352.921 24.5864 351.999 22.9268 352.597 20.834 354.257 19.9121L395.507-3.00456 395.507 3.00527 354.257-19.9114C352.597-20.8334 351.999-22.9262 352.921-24.5858 353.843-26.2453 355.936-26.8432 357.595-25.9213Z" transform="matrix(-1 0 0 1 969.757 1139.5)"/><path d="M695.5 1550.5 695.5 1736.13" stroke="#000000" stroke-width="4.58333" stroke-miterlimit="8" fill="#FFFFFF" fill-rule="evenodd"/><path d="M886.5 1550.5 886.5 1736.13" stroke="#000000" stroke-width="4.58333" stroke-miterlimit="8" fill="#FFFFFF" fill-rule="evenodd"/><path d="M719.417 1641.21 862.812 1641.21 862.812 1645.79 719.417 1645.79ZM724 1657.25 696.5 1643.5 724 1629.75ZM858.228 1629.75 885.728 1643.5 858.228 1657.25Z"/><path d="M491.744 1113.01 529.933 1113.01 530.953 1115.7 505.333 1145.13C500.356 1150.82 496.041 1155.66 492.389 1159.63L492.711 1160.01 504.85 1160.01C506.998 1160.01 508.645 1159.89 509.791 1159.66 510.937 1159.43 511.94 1158.99 512.799 1158.34 513.658 1157.7 514.545 1156.72 515.458 1155.42 516.371 1154.11 517.508 1152.06 518.868 1149.27L523.649 1149.27 520.372 1164.36 481.486 1164.36 480.465 1161.73 509.845 1127.89C513.999 1123.13 517.042 1119.74 518.976 1117.74L518.654 1117.36 506.085 1117.36C504.223 1117.36 502.863 1117.49 502.003 1117.74 501.144 1117.99 500.284 1118.43 499.425 1119.05 498.566 1119.68 497.644 1120.61 496.659 1121.85 495.674 1123.08 494.573 1124.85 493.356 1127.14L488.575 1127.14Z" fill-rule="evenodd"/><text fill="#000000" fill-opacity="0" font-family="Arial,Arial_MSFontService,sans-serif" font-size="51.3477" x="480.465" y="1157.94">𝑧</text><path d="M786.398 1685.69 793.81 1685.69 790.856 1698.96 807.184 1698.96 806.002 1704.38 789.674 1704.38 784.894 1725.22C783.963 1729.27 783.372 1732.18 783.121 1733.95 782.871 1735.72 782.745 1737.15 782.745 1738.22 782.745 1742.66 784.589 1744.88 788.278 1744.88 789.853 1744.88 791.527 1744.28 793.3 1743.08 795.072 1741.88 797.176 1739.83 799.611 1736.93L802.726 1740.15C799.611 1743.91 796.612 1746.69 793.729 1748.48 790.847 1750.27 787.83 1751.16 784.679 1751.16 777.195 1751.16 773.453 1747.39 773.453 1739.83 773.453 1737.43 773.758 1734.91 774.367 1732.26L780.704 1704.38 771.681 1704.38 772.487 1700.68C774.599 1700.64 776.202 1700.48 777.294 1700.19 778.386 1699.91 779.299 1699.51 780.033 1699.01 780.767 1698.51 781.438 1697.79 782.047 1696.86 782.656 1695.93 783.247 1694.74 783.82 1693.29 784.393 1691.84 785.252 1689.31 786.398 1685.69Z" fill-rule="evenodd"/><text fill="#000000" fill-opacity="0" font-family="Arial,Arial_MSFontService,sans-serif" font-size="65.4736" x="771.681" y="1742.98">𝑡</text><path d="M774.642 492.992C776.11 492.992 777.364 493.189 778.402 493.583 779.118 493.869 779.834 494.344 780.55 495.006 781.267 495.668 781.902 496.59 782.457 497.772 783.012 498.954 783.496 500.279 783.907 501.747 784.319 503.215 784.776 505.327 785.277 508.085 786.136 512.704 786.969 517.565 787.775 522.667 788.58 527.77 789.269 532.505 789.842 536.874 793.316 531.861 796.261 526.955 798.678 522.157 801.095 517.359 802.831 513.187 803.888 509.642 804.944 506.097 805.472 503.215 805.472 500.995 805.472 499.312 805.114 498.166 804.398 497.557 803.682 496.949 802.464 496.59 800.746 496.483L801.283 493.851 815.409 493.851 816.859 496.537C814.138 503.985 810.45 511.952 805.795 520.438 801.211 528.745 795.965 537.017 790.057 545.253 784.4 553.094 779.691 558.77 775.931 562.279 773.317 564.678 770.793 566.397 768.358 567.435 766.424 568.223 764.366 568.617 762.181 568.617 761.429 568.617 760.561 568.554 759.576 568.429 758.592 568.304 757.831 568.133 757.294 567.919L759.603 557.499 763.846 557.499C763.846 559.79 764.634 560.936 766.21 560.936 768.286 560.936 770.703 559.638 773.461 557.042 776.218 554.446 779.458 550.534 783.182 545.306 782.144 539.04 780.729 531.485 778.939 522.64 777.041 513.187 775.788 507.333 775.179 505.077 774.427 502.355 773.64 500.619 772.816 499.867 772.315 499.401 771.688 499.169 770.936 499.169 769.79 499.169 768.716 499.634 767.714 500.565 766.711 501.496 765.476 503.107 764.007 505.399L760.516 503.089C762.987 499.401 765.297 496.796 767.445 495.275 769.593 493.753 771.992 492.992 774.642 492.992Z" fill-rule="evenodd"/><text fill="#000000" fill-opacity="0" font-family="Arial,Arial_MSFontService,sans-serif" font-size="75.625" x="757.294" y="559.164">𝑦</text></g></svg>